HIERARCHY
ROOT Hips
{
    OFFSET 0.000000 0.000000 0.000000
    CHANNELS 6 Xposition Yposition Zposition Zrotation Xrotation Yrotation
    JOINT Spine
    {
        OFFSET -0.000000 7.236184 0.000000
        CHANNELS 3 Zrotation Xrotation Yrotation
        JOINT Spine1
        {
            OFFSET -0.000000 20.420147 0.000000
            CHANNELS 3 Zrotation Xrotation Yrotation
            JOINT Neck
            {
                OFFSET -0.000000 20.336288 1.848754
                CHANNELS 3 Zrotation Xrotation Yrotation
                JOINT Head
                {
                    OFFSET -0.000000 12.354461 -1.764923
                    CHANNELS 3 Zrotation Xrotation Yrotation
                    End Site
                    {
                        OFFSET -0.000000 22.061537 0.000000
                    }
                }
            }
            JOINT LeftShoulder
            {
                OFFSET 3.573296 18.396038 -0.314103
                CHANNELS 3 Zrotation Xrotation Yrotation
                JOINT LeftArm
                {
                    OFFSET 10.880760 0.000000 0.000000
                    CHANNELS 3 Zrotation Xrotation Yrotation
                    JOINT LeftForeArm
                    {
                        OFFSET 27.185530 0.000000 0.000000
                        CHANNELS 3 Zrotation Xrotation Yrotation
                        JOINT LeftHand
                        {
                            OFFSET 27.825975 0.000000 0.000000
                            CHANNELS 3 Zrotation Xrotation Yrotation
                            End Site
                            {
                                OFFSET 13.236923 0.000000 0.000000
                            }
                        }
                    }
                }
            }
            JOINT RightShoulder
            {
                OFFSET -3.474926 18.396038 -0.314103
                CHANNELS 3 Zrotation Xrotation Yrotation
                JOINT RightArm
                {
                    OFFSET -10.880760 0.000000 0.000000
                    CHANNELS 3 Zrotation Xrotation Yrotation
                    JOINT RightForeArm
                    {
                        OFFSET -27.185530 0.000000 0.000000
                        CHANNELS 3 Zrotation Xrotation Yrotation
                        JOINT RightHand
                        {
                            OFFSET -27.825975 0.000000 0.000000
                            CHANNELS 3 Zrotation Xrotation Yrotation
                            End Site
                            {
                                OFFSET -13.236923 0.000000 0.000000
                            }
                        }
                    }
                }
            }
        }
    }
    JOINT LeftUpLeg
    {
        OFFSET 8.824615 0.000000 0.000000
        CHANNELS 3 Zrotation Xrotation Yrotation
        JOINT LeftLeg
        {
            OFFSET -0.000000 -35.111282 0.000000
            CHANNELS 3 Zrotation Xrotation Yrotation
            JOINT LeftFoot
            {
                OFFSET -0.000000 -42.324711 0.000000
                CHANNELS 3 Zrotation Xrotation Yrotation
                JOINT LeftToeBase
                {
                    OFFSET -0.000000 -5.735999 13.236923
                    CHANNELS 3 Zrotation Xrotation Yrotation
                    End Site
                    {
                        OFFSET -0.000000 0.000000 3.529846
                    }
                }
            }
        }
    }
    JOINT RightUpLeg
    {
        OFFSET -8.824615 0.000000 0.000000
        CHANNELS 3 Zrotation Xrotation Yrotation
        JOINT RightLeg
        {
            OFFSET -0.000000 -35.111282 0.000000
            CHANNELS 3 Zrotation Xrotation Yrotation
            JOINT RightFoot
            {
                OFFSET -0.000000 -42.324711 0.000000
                CHANNELS 3 Zrotation Xrotation Yrotation
                JOINT RightToeBase
                {
                    OFFSET -0.000000 -5.735999 13.236923
                    CHANNELS 3 Zrotation Xrotation Yrotation
                    End Site
                    {
                        OFFSET -0.000000 0.000000 3.529846
                    }
                }
            }
        }
    }
}
MOTION
Frames:    8
Frame Time:    0.008333
-9.521468    83.901268    101.955055    -1.018432    -3.671014    -177.932587    -1.829435    -9.670447    0.524118    -0.676777    6.062257    0.714753    3.687671    6.687205    -1.307583    5.366992    -4.412565    -0.719049    -2.301104    19.814491    -1.849996    -45.322514    40.176186    -38.317646    -1.403412    -7.476851    -14.417447    3.422157    -7.697698    -1.514616    10.782990    15.785511    -9.453485    31.768524    49.059589    43.614590    -0.617833    -13.991528    23.617628    -9.362788    -14.056501    2.396218    -1.418283    -6.753221    -6.062302    0.331686    19.182800    5.542375    -3.070466    -15.087877    -11.065639    -0.145141    1.504622    0.160455    -1.468639    -0.999102    4.105309    2.038181    10.256279    4.788622    -4.151482    -11.428541    -14.354483    -0.541658    -1.619639    0.587167    
-9.508901    83.891632    101.936531    -1.019252    -3.659307    -177.932205    -1.836007    -9.655531    0.531186    -0.655806    6.072903    0.721198    3.675150    6.666914    -1.308721    5.345809    -4.455568    -0.721658    -2.267657    19.811670    -1.840163    -45.249084    40.320171    -38.415546    -1.363448    -7.443099    -14.775630    3.197175    -7.661347    -1.552816    10.776453    15.807372    -9.445492    31.510313    49.215424    43.822437    -0.694226    -13.849908    24.098680    -9.376968    -13.900329    2.441117    -1.427892    -6.747519    -6.093316    0.350658    19.222845    5.558905    -3.086230    -15.113927    -11.062979    -0.152521    1.474945    0.168623    -1.454101    -1.038003    4.160381    2.049621    10.368194    4.704122    -4.152842    -11.467181    -14.331755    -0.535429    -1.632448    0.580425    
-9.496310    83.880775    101.918198    -1.020749    -3.649759    -177.932724    -1.842366    -9.640773    0.537839    -0.633698    6.084538    0.726989    3.662394    6.646317    -1.309989    5.323557    -4.498730    -0.724671    -2.235616    19.808945    -1.830472    -45.168758    40.472240    -38.517086    -1.310415    -7.401415    -15.146854    2.927270    -7.614519    -1.592103    10.770221    15.830010    -9.439258    31.268589    49.360195    44.015518    -0.774137    -13.710970    24.596640    -9.376785    -13.745385    2.490777    -1.440439    -6.752943    -6.122346    0.372225    19.279058    5.571383    -3.101226    -15.142349    -11.058070    -0.159256    1.442213    0.176079    -1.439260    -1.089769    4.228622    2.064013    10.497277    4.587673    -4.152740    -11.510453    -14.290503    -0.527938    -1.648568    0.572318    
-9.483468    83.868279    101.899933    -1.023253    -3.642347    -177.934402    -1.848528    -9.625769    0.544236    -0.610508    6.097737    0.732540    3.649303    6.623599    -1.311192    5.298947    -4.543194    -0.727959    -2.204763    19.806023    -1.821187    -45.078938    40.636292    -38.625336    -1.242122    -7.352453    -15.535788    2.608111    -7.557248    -1.627560    10.764538    15.854450    -9.433865    31.039379    49.496681    44.197330    -0.858956    -13.573355    25.118986    -9.361731    -13.589856    2.545575    -1.456406    -6.771546    -6.150166    0.396237    19.355566    5.579241    -3.115530    -15.174348    -11.049772    -0.165467    1.405294    0.182957    -1.423240    -1.158131    4.307631    2.080048    10.650224    4.436007    -4.151793    -11.559733    -14.225710    -0.519327    -1.668606    0.562999    
-9.470448    83.853935    101.882126    -1.026887    -3.637326    -177.937531    -1.854306    -9.610339    0.550611    -0.586514    6.112733    0.737877    3.635400    6.597455    -1.312068    5.272209    -4.588934    -0.731310    -2.175835    19.802622    -1.812866    -44.979515    40.812180    -38.739967    -1.158504    -7.298256    -15.937580    2.248689    -7.491298    -1.653671    10.759513    15.879945    -9.428827    30.825674    49.625076    44.365299    -0.948437    -13.439425    25.660133    -9.330987    -13.436021    2.605031    -1.475535    -6.804594    -6.178638    0.421076    19.453632    5.584855    -3.129200    -15.209210    -11.038280    -0.171149    1.363793    0.189253    -1.405757    -1.245770    4.394862    2.096948    10.830986    4.249664    -4.151233    -11.615134    -14.135924    -0.509739    -1.692017    0.552623    
-9.457584    83.837822    101.865387    -1.032059    -3.634973    -177.942245    -1.859795    -9.594294    0.556823    -0.562329    6.129206    0.743066    3.620659    6.566441    -1.312322    5.243235    -4.634551    -0.734509    -2.150186    19.798874    -1.805813    -44.873363    40.995640    -38.858589    -1.062696    -7.241940    -16.340197    1.871500    -7.420305    -1.666592    10.755624    15.906438    -9.423851    30.631498    49.743465    44.516426    -1.040999    -13.313330    26.206268    -9.284809    -13.288215    2.667190    -1.497641    -6.851695    -6.211621    0.444079    19.571178    5.594166    -3.142375    -15.244798    -11.025184    -0.176243    1.317457    0.194903    -1.387658    -1.353624    4.487828    2.114831    11.040252    4.035134    -4.151484    -11.675690    -14.025379    -0.499625    -1.718680    0.541679    
-9.444817    83.819588    101.849937    -1.039108    -3.635938    -177.948883    -1.865168    -9.577596    0.563068    -0.537708    6.147505    0.748255    3.604274    6.528792    -1.311705    5.211614    -4.681062    -0.737336    -2.128268    19.794638    -1.800282    -44.761612    41.186119    -38.980808    -0.957332    -7.185285    -16.743465    1.494875    -7.346658    -1.665955    10.752843    15.934161    -9.418311    30.454723    49.853928    44.652576    -1.137814    -13.194596    26.759050    -9.223395    -13.145540    2.731776    -1.522737    -6.914020    -6.253903    0.462900    19.708830    5.614313    -3.155900    -15.279682    -11.012562    -0.180936    1.264910    0.200110    -1.369110    -1.486068    4.586751    2.134298    11.284883    3.797156    -4.154637    -11.742082    -13.899712    -0.489251    -1.749437    0.530455    
-9.432101    83.798798    101.835991    -1.048519    -3.640724    -177.957794    -1.870733    -9.559850    0.569461    -0.512133    6.168130    0.753583    3.585538    6.482107    -1.309904    5.176136    -4.729197    -0.739680    -2.111251    19.789595    -1.796159    -44.646736    41.382210    -39.105507    -0.845597    -7.129929    -17.146242    1.140620    -7.272768    -1.653618    10.751614    15.963637    -9.411704    30.292866    49.958164    44.775600    -1.240517    -13.083139    27.320656    -9.146832    -13.007355    2.798006    -1.551478    -6.993647    -6.309095    0.476219    19.869059    5.650867    -3.170890    -15.312747    -11.002322    -0.185238    1.204618    0.204891    -1.350498    -1.648259    4.692786    2.156508    11.573595    3.541693    -4.161883    -11.815518    -13.766423    -0.479067    -1.784916    0.519439    
